<svg xmlns="http://www.w3.org/2000/svg" xmlns:xlink="http://www.w3.org/1999/xlink" viewBox="0 0 1000 1000" width="1000"
    height="1000" preserveAspectRatio="xMidYMid meet"
    style="width: 100%; height: 100%;  content-visibility: visible;">
    <defs>
        <clipPath id="__lottie_element_24">
            <rect width="1000" height="1000" x="0" y="0"></rect>
        </clipPath>
    </defs>
    <g clip-path="url(#__lottie_element_24)">
        <g transform="matrix(1,0,0,1,700.1710205078125,499.8290100097656)" opacity="1" style="display: block;">
            <g opacity="1" transform="matrix(1,0,0,1,0,0)">
                <path stroke-linecap="butt" stroke-linejoin="miter" fill-opacity="0" stroke-miterlimit="4"
                    stroke="rgb(39,39,39)" stroke-opacity="1" stroke-width="40.753"
                    d=" M-145.95399475097656,-33.9739990234375 C-130.54600524902344,-100.322998046875 -71.00700378417969,-149.82899475097656 0,-149.82899475097656 C0,-149.82899475097656 0,-149.82899475097656 0,-149.82899475097656 C82.69062042236328,-149.82899475097656 149.82899475097656,-82.69062042236328 149.82899475097656,0 C149.82899475097656,82.69062042236328 82.69062042236328,149.82899475097656 0,149.82899475097656 C-82.69062042236328,149.82899475097656 -149.82899475097656,82.69062042236328 -149.82899475097656,0 C-149.82899475097656,-11.684000015258789 -148.48899841308594,-23.05699920654297 -145.95399475097656,-33.9739990234375">
                </path>
            </g>
        </g>
        <g transform="matrix(0.7071067690849304,-0.7071067690849304,0.7071067690849304,0.7071067690849304,299.8290100097656,499.8290100097656)"
            opacity="1" style="display: block;">
            <g opacity="1" transform="matrix(1,0,0,1,0,0)">
                <path stroke-linecap="butt" stroke-linejoin="miter" fill-opacity="0" stroke-miterlimit="4"
                    stroke="rgb(39,39,39)" stroke-opacity="1" stroke-width="40.753"
                    d=" M127.20500183105469,79.15899658203125 C100.73400115966797,121.5790023803711 53.638999938964844,149.82899475097656 0,149.82899475097656 C-82.69062042236328,149.82899475097656 -149.82899475097656,82.69062042236328 -149.82899475097656,0 C-149.82899475097656,-82.69062042236328 -82.69062042236328,-149.82899475097656 0,-149.82899475097656 C0,-149.82899475097656 0,-149.82899475097656 0,-149.82899475097656 C82.69062042236328,-149.82899475097656 149.82899475097656,-82.69062042236328 149.82899475097656,0 C149.82899475097656,29.052000045776367 141.54200744628906,56.183998107910156 127.20500183105469,79.15899658203125">
                </path>
            </g>
        </g>
        <g transform="matrix(1,0,0,1,255.4820098876953,455.4800109863281)" opacity="1" style="display: block;">
            <g opacity="1" transform="matrix(1,0,0,1,0,0)">
                <path stroke-linecap="butt" stroke-linejoin="miter" fill-opacity="0" stroke-miterlimit="4"
                    stroke="rgb(121,126,247)" stroke-opacity="1" stroke-width="40.753"
                    d=" M44.3489990234375,-44.3489990234375 C20.825000762939453,-44.3489990234375 -1.7359999418258667,-35.00400161743164 -18.3700008392334,-18.3700008392334 C-35.00400161743164,-1.7359999418258667 -44.3489990234375,20.825000762939453 -44.3489990234375,44.3489990234375">
                </path>
            </g>
        </g>
        <g transform="matrix(-1,0,0,1,744.51904296875,455.4800109863281)" opacity="1" style="display: block;">
            <g opacity="1" transform="matrix(1,0,0,1,0,0)">
                <path stroke-linecap="butt" stroke-linejoin="miter" fill-opacity="0" stroke-miterlimit="4"
                    stroke="rgb(121,126,247)" stroke-opacity="1" stroke-width="40.753"
                    d=" M44.3489990234375,-44.3489990234375 C20.825000762939453,-44.3489990234375 -1.7359999418258667,-35.00400161743164 -18.3700008392334,-18.3700008392334 C-35.00400161743164,-1.7359999418258667 -44.3489990234375,20.825000762939453 -44.3489990234375,44.3489990234375">
                </path>
            </g>
        </g>
        <g transform="matrix(1,0,0,1,500.00201416015625,409.25)" opacity="1" style="display: block;">
            <g opacity="1" transform="matrix(1,0,0,1,0,0)">
                <path stroke-linecap="butt" stroke-linejoin="miter" fill-opacity="0" stroke-miterlimit="4"
                    stroke="rgb(39,39,39)" stroke-opacity="1" stroke-width="108"
                    d=" M72.11699676513672,12.75 C72.11699676513672,12.75 45.99800109863281,-12.75 0,-12.75 C-45.99800109863281,-12.75 -72.11699676513672,12.75 -72.11699676513672,12.75">
                </path>
            </g>
        </g>
    </g>
</svg>