<svg xmlns="http://www.w3.org/2000/svg" xmlns:xlink="http://www.w3.org/1999/xlink" viewBox="0 0 500 500" width="500"
  height="500" preserveAspectRatio="xMidYMid meet" style="
          width: 100%;
          height: 100%;
          
          content-visibility: visible;
        ">
  <defs>
    <clipPath id="__lottie_element_252">
      <rect width="500" height="500" x="0" y="0"></rect>
    </clipPath>
  </defs>
  <g clip-path="url(#__lottie_element_252)">
    <g transform="matrix(1,0,0,1,139.46200561523438,85.68800354003906)" opacity="1" style="display: block">
      <g opacity="1" transform="matrix(1,0,0,1,106.3239974975586,143.99600219726562)">
        <path fill="rgb(230,230,230)" fill-opacity="1"
          d=" M93.13200378417969,143.7449951171875 C93.13200378417969,143.7449951171875 -93.13200378417969,143.7449951171875 -93.13200378417969,143.7449951171875 C-100.27999877929688,143.7449951171875 -106.0739974975586,137.9499969482422 -106.0739974975586,130.802001953125 C-106.0739974975586,130.802001953125 -106.0739974975586,-130.8040008544922 -106.0739974975586,-130.8040008544922 C-106.0739974975586,-137.95199584960938 -100.27999877929688,-143.7449951171875 -93.13200378417969,-143.7449951171875 C-93.13200378417969,-143.7449951171875 93.13200378417969,-143.7449951171875 93.13200378417969,-143.7449951171875 C100.27999877929688,-143.7449951171875 106.0739974975586,-137.95199584960938 106.0739974975586,-130.8040008544922 C106.0739974975586,-130.8040008544922 106.0739974975586,130.802001953125 106.0739974975586,130.802001953125 C106.0739974975586,137.9499969482422 100.27999877929688,143.7449951171875 93.13200378417969,143.7449951171875z">
        </path>
      </g>
      <g opacity="1" transform="matrix(1,0,0,1,106.3239974975586,88.90699768066406)">
        <path fill="rgb(183,183,183)" fill-opacity="1"
          d=" M48.43199920654297,0 C48.43199920654297,26.74799919128418 26.74799919128418,48.43199920654297 0,48.43199920654297 C-26.74799919128418,48.43199920654297 -48.43199920654297,26.74799919128418 -48.43199920654297,0 C-48.43199920654297,-26.74799919128418 -26.74799919128418,-48.43199920654297 0,-48.43199920654297 C26.74799919128418,-48.43199920654297 48.43199920654297,-26.74799919128418 48.43199920654297,0z">
        </path>
      </g>
      <g opacity="1" transform="matrix(1,0,0,1,106.3239974975586,77.28299713134766)">
        <path fill="rgb(255,255,255)" fill-opacity="1"
          d=" M16.95599937438965,0 C16.95599937438965,9.364999771118164 9.364999771118164,16.95599937438965 0,16.95599937438965 C-9.364999771118164,16.95599937438965 -16.95599937438965,9.364999771118164 -16.95599937438965,0 C-16.95599937438965,-9.364999771118164 -9.364999771118164,-16.95599937438965 0,-16.95599937438965 C9.364999771118164,-16.95599937438965 16.95599937438965,-9.364999771118164 16.95599937438965,0z">
        </path>
      </g>
      <g opacity="1" transform="matrix(1,0,0,1,106.3239974975586,119.24600219726562)">
        <path fill="rgb(255,255,255)" fill-opacity="1"
          d=" M20.89299964904785,-18.093000411987305 C20.89299964904785,-18.093000411987305 -20.891000747680664,-18.093000411987305 -20.891000747680664,-18.093000411987305 C-28.179000854492188,-18.093000411987305 -34.08700180053711,-12.1850004196167 -34.08700180053711,-4.8979997634887695 C-34.08700180053711,-4.8979997634887695 -34.08700180053711,4.063000202178955 -34.08700180053711,4.063000202178955 C-25.334999084472656,12.736000061035156 -13.293000221252441,18.093000411987305 0.0010000000474974513,18.093000411987305 C13.295000076293945,18.093000411987305 25.336000442504883,12.736000061035156 34.08700180053711,4.063000202178955 C34.08700180053711,4.063000202178955 34.08700180053711,-4.8979997634887695 34.08700180053711,-4.8979997634887695 C34.08700180053711,-12.1850004196167 28.180999755859375,-18.093000411987305 20.89299964904785,-18.093000411987305z">
        </path>
      </g>
      <g opacity="1" transform="matrix(1,0,0,1,106.3239974975586,174.1020050048828)">
        <path fill="rgb(191,191,191)" fill-opacity="1"
          d=" M64.89800262451172,3.8369998931884766 C64.89800262451172,3.8369998931884766 -64.89800262451172,3.8369998931884766 -64.89800262451172,3.8369998931884766 C-67.01599884033203,3.8369998931884766 -68.73400115966797,2.11899995803833 -68.73400115966797,0.0010000000474974513 C-68.73400115966797,-2.118000030517578 -67.01599884033203,-3.8359999656677246 -64.89800262451172,-3.8359999656677246 C-64.89800262451172,-3.8359999656677246 64.89800262451172,-3.8359999656677246 64.89800262451172,-3.8359999656677246 C67.01699829101562,-3.8359999656677246 68.73400115966797,-2.118000030517578 68.73400115966797,0.0010000000474974513 C68.73400115966797,2.11899995803833 67.01699829101562,3.8369998931884766 64.89800262451172,3.8369998931884766z">
        </path>
      </g>
      <g opacity="1" transform="matrix(1,0,0,1,106.3239974975586,199.8769989013672)">
        <path fill="rgb(193,197,201)" fill-opacity="1"
          d=" M31.85300064086914,3.8369998931884766 C31.85300064086914,3.8369998931884766 -31.85300064086914,3.8369998931884766 -31.85300064086914,3.8369998931884766 C-33.97100067138672,3.8369998931884766 -35.68899917602539,2.11899995803833 -35.68899917602539,0.0010000000474974513 C-35.68899917602539,-2.118000030517578 -33.97100067138672,-3.8359999656677246 -31.85300064086914,-3.8359999656677246 C-31.85300064086914,-3.8359999656677246 31.85300064086914,-3.8359999656677246 31.85300064086914,-3.8359999656677246 C33.97200012207031,-3.8359999656677246 35.68899917602539,-2.118000030517578 35.68899917602539,0.0010000000474974513 C35.68899917602539,2.11899995803833 33.97200012207031,3.8369998931884766 31.85300064086914,3.8369998931884766z">
        </path>
      </g>
      <g opacity="1" transform="matrix(1,0,0,1,106.3239974975586,233.3249969482422)">
        <path fill="rgb(255,255,255)" fill-opacity="1"
          d=" M67.46199798583984,14.1899995803833 C67.46199798583984,14.1899995803833 -67.46199798583984,14.1899995803833 -67.46199798583984,14.1899995803833 C-70.96299743652344,14.1899995803833 -73.80000305175781,11.352999687194824 -73.80000305175781,7.8520002365112305 C-73.80000305175781,7.8520002365112305 -73.80000305175781,-7.8520002365112305 -73.80000305175781,-7.8520002365112305 C-73.80000305175781,-11.352999687194824 -70.96299743652344,-14.190999984741211 -67.46199798583984,-14.190999984741211 C-67.46199798583984,-14.190999984741211 67.46199798583984,-14.190999984741211 67.46199798583984,-14.190999984741211 C70.96299743652344,-14.190999984741211 73.80000305175781,-11.352999687194824 73.80000305175781,-7.8520002365112305 C73.80000305175781,-7.8520002365112305 73.80000305175781,7.8520002365112305 73.80000305175781,7.8520002365112305 C73.80000305175781,11.352999687194824 70.96299743652344,14.1899995803833 67.46199798583984,14.1899995803833z">
        </path>
      </g>
    </g>
    <g transform="matrix(1,0,0,1,274.88800048828125,201.9429931640625)" opacity="1" style="display: block">
      <g opacity="1" transform="matrix(1,0,0,1,84.2239990234375,89.84100341796875)">
        <path fill="rgb(166,166,166)" fill-opacity="1"
          d=" M83.9739990234375,89.59100341796875 C83.9739990234375,89.59100341796875 -83.9739990234375,89.59100341796875 -83.9739990234375,89.59100341796875 C-83.9739990234375,89.59100341796875 -83.9739990234375,-16.003000259399414 -83.9739990234375,-16.003000259399414 C-83.9739990234375,-16.003000259399414 0,-89.59100341796875 0,-89.59100341796875 C0,-89.59100341796875 83.9739990234375,-16.003000259399414 83.9739990234375,-16.003000259399414 C83.9739990234375,-16.003000259399414 83.9739990234375,89.59100341796875 83.9739990234375,89.59100341796875z">
        </path>
      </g>
      <g opacity="1" transform="matrix(1,0,0,1,84.2239990234375,72.48799896240234)">
        <path fill="rgb(242,242,242)" fill-opacity="1"
          d=" M66.40899658203125,56.88199996948242 C66.40899658203125,56.88199996948242 -66.40899658203125,56.88199996948242 -66.40899658203125,56.88199996948242 C-66.40899658203125,56.88199996948242 -66.40899658203125,-56.88199996948242 -66.40899658203125,-56.88199996948242 C-66.40899658203125,-56.88199996948242 66.40899658203125,-56.88199996948242 66.40899658203125,-56.88199996948242 C66.40899658203125,-56.88199996948242 66.40899658203125,56.88199996948242 66.40899658203125,56.88199996948242z">
        </path>
      </g>
      <g opacity="1" transform="matrix(1,0,0,1,84.2239990234375,59.71099853515625)">
        <path fill="rgb(165,165,165)" fill-opacity="1"
          d=" M22.361000061035156,0 C22.361000061035156,12.348999977111816 12.348999977111816,22.361000061035156 -0.0010000000474974513,22.361000061035156 C-12.350000381469727,22.361000061035156 -22.361000061035156,12.348999977111816 -22.361000061035156,0 C-22.361000061035156,-12.348999977111816 -12.350000381469727,-22.361000061035156 -0.0010000000474974513,-22.361000061035156 C12.348999977111816,-22.361000061035156 22.361000061035156,-12.348999977111816 22.361000061035156,0z">
        </path>
      </g>
      <g opacity="1" transform="matrix(1,0,0,1,83.9209976196289,60.13600158691406)">
        <path fill="rgb(255,255,255)" fill-opacity="1"
          d=" M7.890999794006348,12.866000175476074 C6.214000225067139,13.918999671936035 3.6089999675750732,14.822999954223633 -0.5059999823570251,14.822999954223633 C-8.512999534606934,14.822999954223633 -14.493000030517578,9.286999702453613 -14.493000030517578,0.7289999723434448 C-14.493000030517578,-8.388999938964844 -8.279000282287598,-14.822999954223633 0.9929999709129333,-14.822999954223633 C8.255999565124512,-14.822999954223633 14.493000030517578,-10.659000396728516 14.493000030517578,-2.5 C14.493000030517578,3.6989998817443848 11.265000343322754,7.610000133514404 6.335000038146973,7.610000133514404 C4.28000020980835,7.610000133514404 2.7820000648498535,6.88100004196167 2.4619998931884766,5.232999801635742 C1.2829999923706055,6.770999908447266 -0.039000000804662704,7.585999965667725 -2.305000066757202,7.585999965667725 C-5.228000164031982,7.585999965667725 -7.349999904632568,5.519999980926514 -7.349999904632568,1.4869999885559082 C-7.349999904632568,-3.7309999465942383 -4.090000152587891,-7.822999954223633 -0.09300000220537186,-7.822999954223633 C2.2679998874664307,-7.822999954223633 3.4040000438690186,-6.697000026702881 3.75600004196167,-5.545000076293945 C3.75600004196167,-5.545000076293945 4.2769999504089355,-7.473999977111816 4.2769999504089355,-7.473999977111816 C4.2769999504089355,-7.473999977111816 8.083999633789062,-7.473999977111816 8.083999633789062,-7.473999977111816 C8.083999633789062,-7.473999977111816 6.011000156402588,2.0309998989105225 6.011000156402588,2.0309998989105225 C5.5970001220703125,3.9539999961853027 6.014999866485596,4.541999816894531 7.185999870300293,4.541999816894531 C9.442999839782715,4.541999816894531 11.166000366210938,1.7710000276565552 11.166000366210938,-2.3589999675750732 C11.166000366210938,-8.229999542236328 7.0329999923706055,-11.87600040435791 0.925000011920929,-11.87600040435791 C-6.184000015258789,-11.87600040435791 -10.925999641418457,-7.122000217437744 -10.937000274658203,0.753000020980835 C-10.947999954223633,6.880000114440918 -6.818999767303467,11.732999801635742 -0.32899999618530273,11.732999801635742 C2.6019999980926514,11.732999801635742 4.9770002365112305,11.282999992370605 7.1529998779296875,10.130999565124512 C7.1529998779296875,10.130999565124512 7.890999794006348,12.866000175476074 7.890999794006348,12.866000175476074z M-3.2690000534057617,1.3370000123977661 C-3.2690000534057617,3.378000020980835 -2.5420000553131104,4.493000030517578 -1.13100004196167,4.493000030517578 C0.5889999866485596,4.493000030517578 1.875,3.2699999809265137 2.5880000591278076,-0.0020000000949949026 C3.3529999256134033,-3.372999906539917 2.609999895095825,-4.8379998207092285 0.5490000247955322,-4.8379998207092285 C-1.8420000076293945,-4.8379998207092285 -3.2690000534057617,-1.6549999713897705 -3.2690000534057617,1.3370000123977661z">
        </path>
      </g>
      <g opacity="1" transform="matrix(1,0,0,1,84.2239990234375,126.63500213623047)">
        <path fill="rgb(209,209,209)" fill-opacity="1"
          d=" M83.9739990234375,52.797000885009766 C83.9739990234375,52.797000885009766 -83.9739990234375,52.797000885009766 -83.9739990234375,52.797000885009766 C-83.9739990234375,52.797000885009766 -83.9739990234375,-52.797000885009766 -83.9739990234375,-52.797000885009766 C-83.9739990234375,-52.797000885009766 0,0 0,0 C0,0 83.9739990234375,-52.797000885009766 83.9739990234375,-52.797000885009766 C83.9739990234375,-52.797000885009766 83.9739990234375,52.797000885009766 83.9739990234375,52.797000885009766z">
        </path>
      </g>
      <g opacity="1" transform="matrix(1,0,0,1,84.2239990234375,153.03399658203125)">
        <path fill="rgb(217,217,217)" fill-opacity="1"
          d=" M83.9739990234375,26.398000717163086 C83.9739990234375,26.398000717163086 -83.9739990234375,26.398000717163086 -83.9739990234375,26.398000717163086 C-83.9739990234375,26.398000717163086 0,-26.398000717163086 0,-26.398000717163086 C0,-26.398000717163086 83.9739990234375,26.398000717163086 83.9739990234375,26.398000717163086z">
        </path>
      </g>
    </g>
    <g transform="matrix(1,0,0,1,77.66400909423828,272.24700927734375)" opacity="1" style="display: block">
      <g opacity="1" transform="matrix(1,0,0,1,67.53299713134766,67.53299713134766)">
        <path fill="rgb(255, 223, 158)" fill-opacity="1"
          d=" M67.28299713134766,0 C67.28299713134766,37.159000396728516 37.159000396728516,67.28299713134766 -0.0010000000474974513,67.28299713134766 C-37.15999984741211,67.28299713134766 -67.28299713134766,37.159000396728516 -67.28299713134766,0 C-67.28299713134766,-37.159000396728516 -37.15999984741211,-67.28299713134766 -0.0010000000474974513,-67.28299713134766 C37.159000396728516,-67.28299713134766 67.28299713134766,-37.159000396728516 67.28299713134766,0z">
        </path>
      </g>
    </g>
    <g transform="matrix(1,0,0,1,76.62801361083984,283.47601318359375)" opacity="1" style="display: block">
      <g opacity="1" transform="matrix(1,0,0,1,69.36399841308594,56.67900085449219)">
        <path stroke-linecap="round" stroke-linejoin="round" fill-opacity="0" stroke="white" stroke-opacity="1"
          stroke-width="14.18"
          d=" M-33.91400146484375,-4.144999980926514 C-33.91400146484375,-4.144999980926514 -13.199000358581543,21.229999542236328 -13.199000358581543,21.229999542236328 C-13.199000358581543,21.229999542236328 33.91400146484375,-21.229999542236328 33.91400146484375,-21.229999542236328">
        </path>
      </g>
    </g>
  </g>
</svg>